<svg width="21" height="22" viewBox="0 0 21 22" fill="none" xmlns="http://www.w3.org/2000/svg">
<g clip-path="url(#clip0_604_22)">
<path d="M3.74082 7.93935C3.49753 7.94274 3.2651 8.04058 3.09262 8.21218L1.21762 10.0872C1.04184 10.263 0.943085 10.5014 0.943085 10.75C0.943085 10.9987 1.04184 11.2371 1.21762 11.4129C1.39343 11.5887 1.63186 11.6874 1.88048 11.6874C2.12909 11.6874 2.36753 11.5887 2.54334 11.4129L2.818 11.1382V19.1876H10.8673L10.5926 19.4622C10.4168 19.638 10.3181 19.8765 10.3181 20.1251C10.3181 20.3737 10.4168 20.6121 10.5926 20.7879C10.7684 20.9637 11.0069 21.0625 11.2555 21.0625C11.5041 21.0625 11.7425 20.9637 11.9183 20.7879L13.7933 18.9129C13.9691 18.7371 14.0678 18.4987 14.0678 18.2501C14.0678 18.0015 13.9691 17.763 13.7933 17.5872L11.9183 15.7122C11.8294 15.6237 11.7236 15.554 11.6073 15.5071C11.4909 15.4602 11.3663 15.4372 11.2408 15.4394C10.9976 15.4428 10.7651 15.5406 10.5926 15.7122C10.4169 15.888 10.3181 16.1264 10.3181 16.3751C10.3181 16.6237 10.4169 16.8621 10.5926 17.0379L10.8673 17.3126H6.01865L11.2554 12.0758V12.4658C11.2554 12.7144 11.3542 12.9529 11.53 13.1287C11.7058 13.3045 11.9443 13.4033 12.1929 13.4033C12.4416 13.4033 12.68 13.3045 12.8558 13.1287C13.0317 12.9529 13.1304 12.7144 13.1304 12.4658V9.81258C13.1304 9.56395 13.0316 9.32551 12.8558 9.14969C12.68 8.97388 12.4416 8.8751 12.1929 8.87508H9.53971C9.29107 8.87508 9.05261 8.97385 8.8768 9.14967C8.70098 9.32548 8.60221 9.56394 8.60221 9.81258C8.60221 10.0612 8.70098 10.2997 8.8768 10.4755C9.05261 10.6513 9.29107 10.7501 9.53971 10.7501H9.92973L4.69295 15.9869V11.1382L4.96761 11.4129C5.14342 11.5887 5.38185 11.6874 5.63047 11.6874C5.87908 11.6874 6.11752 11.5887 6.29333 11.4129C6.46911 11.2371 6.56786 10.9986 6.56786 10.75C6.56786 10.5014 6.46911 10.263 6.29333 10.0871L4.41833 8.21214C4.3294 8.12365 4.22361 8.05391 4.10724 8.00705C3.99087 7.96018 3.86625 7.93719 3.74082 7.93935Z" fill="#E0E0E0"/>
</g>
<g clip-path="url(#clip1_604_22)">
<path d="M16.5787 4.41227C15.744 3.8173 14.7066 3.57766 13.6948 3.74607C12.683 3.91448 11.7797 4.47714 11.1836 5.31027L12.2327 6.05804C12.6301 5.50262 13.2324 5.12751 13.9069 5.01524C14.5814 4.90297 15.273 5.06273 15.8295 5.45937C16.386 5.85602 16.7618 6.45705 16.8743 7.13027C16.9868 7.80348 16.8268 8.49371 16.4293 9.04913C16.0319 9.60455 15.4297 9.97966 14.7552 10.0919L14.9673 11.3611C15.979 11.1927 16.8824 10.63 17.4785 9.79691C18.0746 8.96378 18.3147 7.92842 18.146 6.9186C17.9773 5.90879 17.4135 5.00723 16.5787 4.41227Z" fill="#D9D9D9"/>
<path d="M13.2999 6.80968L11.7637 7.29593L10.2276 7.78233L10.1899 6.17425L10.1524 4.56632L11.7262 5.688L13.2999 6.80968Z" fill="#E0E0E0"/>
</g>
<defs>
<clipPath id="clip0_604_22">
<rect width="15" height="15" fill="white" transform="translate(0 7)"/>
</clipPath>
<clipPath id="clip1_604_22">
<rect width="10.3069" height="10.3004" fill="white" transform="matrix(0.814328 0.580404 -0.581907 0.813255 12.6068 0)"/>
</clipPath>
</defs>
</svg>
